<?xml version="1.0" standalone="no"?>
<!DOCTYPE svg PUBLIC "-//W3C//DTD SVG 20010904//EN"
 "http://www.w3.org/TR/2001/REC-SVG-20010904/DTD/svg10.dtd">
<svg version="1.0" xmlns="http://www.w3.org/2000/svg"
 width="612.000000pt" height="612.000000pt" viewBox="0 0 612.000000 612.000000"
 preserveAspectRatio="xMidYMid meet">

<g transform="translate(0.000000,612.000000) scale(0.100000,-0.100000)"
fill="#FFFFFF" stroke="none">
<path d="M2854 6110 c-746 -52 -1426 -361 -1954 -890 -1210 -1209 -1193 -3163
38 -4352 727 -701 1739 -995 2737 -793 458 93 896 297 1275 595 132 104 392
364 496 495 954 1208 869 2918 -199 4022 -488 504 -1139 827 -1828 907 -165
19 -416 26 -565 16z m-456 -1282 c16 -16 15 -53 -1 -66 -9 -8 -147 -12 -418
-14 -395 -3 -405 -3 -446 -25 -51 -27 -96 -82 -112 -132 -7 -26 -11 -170 -11
-448 0 -305 -3 -412 -12 -421 -17 -17 -65 -15 -72 4 -3 9 -6 206 -6 438 0 497
-2 486 94 581 95 95 88 94 566 94 303 1 409 -2 418 -11z m2220 -16 c66 -35
119 -88 149 -150 l28 -57 3 -433 c2 -319 0 -438 -9 -448 -6 -8 -25 -14 -40
-14 -22 0 -32 6 -39 26 -6 15 -10 193 -10 435 0 450 0 447 -61 508 -66 66 -62
65 -513 71 -406 5 -409 5 -417 26 -5 14 -2 29 8 43 l15 22 421 -3 c418 -3 422
-3 465 -26z m-2870 -684 c9 -9 12 -262 12 -1075 l0 -1063 -25 -12 c-21 -9 -28
-8 -45 7 -20 18 -20 30 -20 1075 0 808 3 1059 12 1068 7 7 21 12 33 12 12 0
26 -5 33 -12z m270 0 c17 -17 17 -1659 0 -1676 -15 -15 -51 -15 -66 0 -17 17
-17 1659 0 1676 7 7 21 12 33 12 12 0 26 -5 33 -12z m270 0 c9 -9 12 -260 12
-1070 l0 -1058 -24 -15 c-19 -13 -29 -14 -45 -5 l-21 11 0 1062 c0 814 3 1066
12 1075 7 7 21 12 33 12 12 0 26 -5 33 -12z m270 0 c16 -16 17 -1639 2 -1669
-16 -30 -68 -26 -80 7 -6 16 -10 330 -10 827 0 710 2 805 16 825 17 24 53 29
72 10z m266 -4 c14 -14 16 -124 16 -1065 0 -1036 0 -1049 -20 -1069 -11 -11
-24 -20 -30 -20 -5 0 -19 9 -30 20 -20 20 -20 33 -20 1069 0 941 2 1051 16
1065 8 9 24 16 34 16 10 0 26 -7 34 -16z m270 -6 c14 -20 16 -115 16 -825 0
-497 -4 -811 -10 -827 -7 -20 -17 -26 -38 -26 -15 0 -33 5 -40 12 -16 16 -17
1639 -2 1669 14 26 55 24 74 -3z m264 10 c9 -9 12 -262 12 -1075 l0 -1063 -25
-12 c-21 -9 -28 -8 -45 7 -20 18 -20 30 -20 1075 0 808 3 1059 12 1068 7 7 21
12 33 12 12 0 26 -5 33 -12z m270 0 c17 -17 17 -1659 0 -1676 -15 -15 -51 -15
-66 0 -17 17 -17 1659 0 1676 7 7 21 12 33 12 12 0 26 -5 33 -12z m270 0 c9
-9 12 -260 12 -1069 0 -948 -2 -1059 -16 -1073 -18 -19 -28 -20 -55 -6 -19 10
-19 33 -19 1073 0 814 3 1066 12 1075 7 7 21 12 33 12 12 0 26 -5 33 -12z
m270 0 c17 -17 17 -1659 0 -1676 -14 -14 -64 -16 -73 -3 -3 6 -5 382 -5 837 0
599 3 831 11 840 14 17 51 18 67 2z m272 -7 c7 -13 10 -365 10 -1070 l0 -1051
-24 -15 c-30 -20 -63 -7 -71 28 -3 12 -4 491 -3 1065 3 914 5 1044 18 1052 25
16 59 11 70 -9z m-3042 -1723 c9 -9 12 -117 12 -422 0 -259 4 -425 11 -449 13
-49 73 -115 124 -138 37 -17 74 -19 436 -19 425 0 434 -1 427 -50 -6 -49 -23
-51 -448 -48 l-395 3 -55 26 c-74 34 -120 76 -156 141 l-29 53 -3 443 c-2 326
0 448 9 458 14 17 51 18 67 2z m3392 -8 c7 -14 10 -158 8 -453 l-3 -432 -27
-52 c-52 -97 -126 -152 -233 -172 -72 -14 -763 -15 -798 -2 -30 12 -39 43 -20
70 14 21 21 21 406 21 224 0 407 4 427 10 47 13 106 63 130 111 19 36 20 60
20 456 0 363 2 422 16 441 19 28 60 29 74 2z"/>
</g>
</svg>
