<svg version="1.0" xmlns="http://www.w3.org/2000/svg" width="180.000000pt" height="180.000000pt" viewBox="0 0 180.000000 180.000000" preserveAspectRatio="xMidYMid meet">
    <g transform="translate(0.000000,180.000000) scale(0.100000,-0.100000)" fill="#FFFFFF" stroke="none">
        
        <path d="M785 1784 c-407 -58 -711 -352 -766 -741 -83 -582 335 -1050 918 -1030 297 11 528 134 699 374 161 224 201 567 98 842 -95 252 -330 465 -589 531 -78 20 -289 34 -360 24z 
        m102 -202 c10 -6 13 -64 15 -223 2 -238 -1 -252 -64 -303 -67 -56 -454 -337 -491 -356 l-38 -21 -21 48 c-27 60 -36 223 -18 315 50 259 239 456 503 523 110 28 99 26 114 17z 
        
        m347 -440 c55 -38 54 -47 -7 -75 -63 -29 -96 -60 -204 -194 -77 -94 -344 -450 -410 -546 -38 -54 -53 -57 -108 -20 -83 55 -245 227 -245 259 0 17 53 61 150 124 47 30 92 60 100 67 41 32 117 87 230 166 69 47 141 101 160 118 161 142 241 166 334 101z 
        
        m364 -267 c23 -23 -49 -237 -109 -326 -158 -234 -528 -354 -765 -249 -53 23 -54 35 -10 92 19 24 94 122 167 218 152 201 192 247 234 267 29 13 469 12 483 -2z"/>
        
        <path d="M1120 1140 c0 -5 5 -10 10 -10 6 0 10 5 10 10 0 6 -4 10 -10 10 -5 0 -10 -4 -10 -10z"/>
    </g>
</svg>