<?xml version="1.0" encoding="UTF-8"?>
<svg version="1.1" xmlns="http://www.w3.org/2000/svg" width="1024" height="1024">
<path d="M0 0 C4.53372538 1.27280249 8.93301678 2.10917922 13.60571289 2.76489258 C15.29859074 3.71984931 16.96428326 4.72398598 18.60571289 5.76489258 C20.52212444 6.48406654 22.43914513 7.20169396 24.36035156 7.90795898 C41.95549512 14.62307847 58.37725457 24.43520599 72.60571289 36.76489258 C73.82967773 37.82450195 73.82967773 37.82450195 75.07836914 38.90551758 C77.62345278 41.15557607 80.11918781 43.45039125 82.60571289 45.76489258 C83.38430664 46.46614258 84.16290039 47.16739258 84.96508789 47.88989258 C104.04277629 65.84536401 120.06175134 91.99277026 126.70727539 117.38208008 C127.57393988 120.64526029 128.60082467 123.81272793 129.66821289 127.01489258 C133.99794073 141.15109684 135.13377104 155.5623148 135.32055664 170.26879883 C135.33278322 171.10159803 135.3450098 171.93439724 135.35760689 172.79243279 C135.41936104 177.1794679 135.46265474 181.56624265 135.49121094 185.95361328 C135.52471924 190.45387111 135.62847502 194.94980516 135.74672604 199.4485178 C135.82530965 202.94632369 135.85028749 206.44308345 135.86105537 209.94169426 C135.8755719 211.60084093 135.91018737 213.25994931 135.96616936 214.9182148 C136.373928 227.76661573 136.373928 227.76661573 131.97402954 232.73898315 C129.05944924 235.1093077 125.88718904 236.94135676 122.60571289 238.76489258 C121.38718551 239.65397814 120.1841875 240.56559201 119.01196289 241.51489258 C100.29861328 256.00264712 100.29861328 256.00264712 91.60571289 261.76489258 C91.59762604 260.59106522 91.58953918 259.41723785 91.58120728 258.20783997 C91.50344561 247.10110696 91.41563259 235.99449194 91.31818581 224.8879137 C91.26841482 219.17904361 91.22208424 213.47019032 91.18383789 207.76123047 C91.14674116 202.24331845 91.10031761 196.72555397 91.04764938 191.20776939 C91.02923418 189.11127011 91.0140797 187.01473936 91.00236893 184.91819191 C90.91179746 169.25236124 89.74620345 155.19589068 85.04321289 140.13989258 C84.69315186 139.01615234 84.34309082 137.89241211 83.98242188 136.73461914 C72.67643626 101.5782328 49.60037649 71.37484331 16.75415039 53.80786133 C10.27598013 50.50710871 3.45966424 48.14853586 -3.39428711 45.76489258 C-4.587677 45.26614624 -4.587677 45.26614624 -5.80517578 44.75732422 C-33.29604479 34.21980583 -67.80530522 39.01286685 -94.09350586 50.65942383 C-106.81679556 56.65999059 -118.10025246 65.26118689 -128.39428711 74.76489258 C-129.16530762 75.4701709 -129.16530762 75.4701709 -129.9519043 76.18969727 C-145.46940654 90.54120059 -156.1390985 108.4036244 -164.39428711 127.76489258 C-164.75135742 128.59633789 -165.10842773 129.4277832 -165.47631836 130.28442383 C-166.58143309 133.08023202 -167.48792464 135.8976121 -168.39428711 138.76489258 C-168.59696524 139.37904978 -168.79964337 139.99320698 -169.00846326 140.62597501 C-174.58026777 158.09895728 -174.11811152 175.78873469 -174.05915821 193.90589178 C-174.04978966 198.49252325 -174.06951188 203.07904886 -174.08547974 207.66564941 C-174.10918385 215.58837293 -174.11496294 223.51094101 -174.10813332 231.43369484 C-174.09828576 242.8882538 -174.11614591 254.34264186 -174.14050063 265.79717311 C-174.1792859 284.38692134 -174.19604697 302.9766203 -174.19873047 321.56640625 C-174.201383 339.61135389 -174.21460605 357.65624371 -174.24169922 375.70117188 C-174.24337673 376.82710756 -174.24505425 377.95304325 -174.2467826 379.1130982 C-174.25998614 387.92027786 -174.27379748 396.72745653 -174.28780067 405.53463495 C-174.35613641 448.61139909 -174.37151812 491.68803367 -174.39428711 534.76489258 C-104.43428711 534.76489258 -34.47428711 534.76489258 37.60571289 534.76489258 C37.60571289 576.67489258 37.60571289 618.58489258 37.60571289 661.76489258 C-74.26428711 661.76489258 -186.13428711 661.76489258 -301.39428711 661.76489258 C-301.39428711 508.97489258 -301.39428711 356.18489258 -301.39428711 198.76489258 C-295.77070434 201.01432568 -295.77070434 201.01432568 -292.96850586 202.97973633 C-292.34556641 203.41261963 -291.72262695 203.84550293 -291.08081055 204.29150391 C-290.42113281 204.75709717 -289.76145508 205.22269043 -289.08178711 205.70239258 C-287.64309399 206.7051531 -286.20428889 207.70775297 -284.76538086 208.71020508 C-284.03561035 209.22099609 -283.30583984 209.73178711 -282.55395508 210.25805664 C-279.90323895 212.10750497 -277.23757759 213.93441926 -274.57006836 215.75952148 C-266.65904087 221.1732799 -258.80220052 226.66349328 -250.95581055 232.17041016 C-249.74006348 233.02348755 -249.74006348 233.02348755 -248.49975586 233.89379883 C-247.77941162 234.39983643 -247.05906738 234.90587402 -246.31689453 235.42724609 C-244.68954017 236.55947143 -243.04380797 237.665212 -241.39428711 238.76489258 C-241.03352356 241.09341431 -241.03352356 241.09341431 -241.05371094 244.04077148 C-241.05405083 245.69225693 -241.05405083 245.69225693 -241.05439758 247.37710571 C-241.06988144 248.569841 -241.0853653 249.76257629 -241.10131836 250.99145508 C-241.1055632 252.20940765 -241.10980804 253.42736023 -241.11418152 254.68222046 C-241.1310188 258.58499962 -241.16868116 262.48726862 -241.20678711 266.38989258 C-241.22182737 269.03051014 -241.23551692 271.67113577 -241.24780273 274.31176758 C-241.28093889 280.79631762 -241.3311885 287.28056866 -241.39428711 293.76489258 C-243.1031569 292.68240566 -244.81135582 291.59885964 -246.51928711 290.51489258 C-247.9462793 289.6099707 -247.9462793 289.6099707 -249.40209961 288.68676758 C-252.4218542 286.7471863 -255.40806182 284.75570944 -258.39428711 282.76489258 C-258.39428711 392.98489258 -258.39428711 503.20489258 -258.39428711 616.76489258 C-174.90428711 616.76489258 -91.41428711 616.76489258 -5.39428711 616.76489258 C-5.39428711 605.21489258 -5.39428711 593.66489258 -5.39428711 581.76489258 C-8.82448242 581.77391602 -12.25467773 581.78293945 -15.78881836 581.79223633 C-26.3922463 581.80156929 -36.98788534 581.66348471 -47.58914185 581.46420288 C-82.33269976 580.82395852 -117.07857995 580.54277029 -151.8265845 580.27899525 C-159.10673572 580.22367751 -166.38687452 580.16679737 -173.66701297 580.10982793 C-188.57609175 579.99319243 -203.48518406 579.87838739 -218.39428711 579.76489258 C-218.46304657 527.03306837 -218.51586321 474.30124872 -218.5474831 421.56938845 C-218.55123494 415.33515863 -218.55511793 409.1009289 -218.55908203 402.86669922 C-218.55986896 401.625646 -218.56065589 400.38459278 -218.56146667 399.10593189 C-218.57449857 379.04612473 -218.59814014 358.98634354 -218.6257455 338.92655175 C-218.65386147 318.32292621 -218.67047643 297.7193142 -218.67655259 277.11567026 C-218.68065622 264.41580567 -218.69358801 251.71601446 -218.71803651 239.01617248 C-218.73397024 230.29164738 -218.73867029 221.56715988 -218.73479124 212.84262132 C-218.73288151 207.81908573 -218.73567976 202.79567782 -218.75190353 197.7721653 C-218.91863188 143.37671818 -209.51137943 91.69401335 -169.8215332 51.22729492 C-168.33256375 49.70164884 -166.8732934 48.15077165 -165.41381836 46.59692383 C-146.46471534 26.70528711 -123.20030103 12.88381836 -97.39428711 3.76489258 C-96.68433594 3.51126953 -95.97438477 3.25764648 -95.24291992 2.99633789 C-65.03245688 -7.61814912 -30.7327861 -8.6335093 0 0 Z " fill="#4B35C6" transform="translate(554.394287109375,173.235107421875)"/>
<path d="M0 0 C0.66 0 1.32 0 2 0 C2 152.79 2 305.58 2 463 C-39.91 463 -81.82 463 -125 463 C-125.1613254 392.22296365 -125.1613254 392.22296365 -125.1953125 362.6953125 C-125.20314411 355.93652305 -125.21122608 349.17773396 -125.21972656 342.41894531 C-125.22078156 341.5718292 -125.22183655 340.7247131 -125.22292352 339.8519268 C-125.24032564 326.17191096 -125.27186359 312.4919623 -125.30861118 298.81198631 C-125.34600374 284.77494749 -125.36823228 270.73794387 -125.37635398 256.70085728 C-125.38184526 248.03765179 -125.39919531 239.37463611 -125.43166587 230.71148904 C-125.45279297 224.772624 -125.45920415 218.83385724 -125.45400551 212.89495735 C-125.45144089 209.46733279 -125.45540046 206.04004014 -125.4768219 202.61247444 C-125.49666393 198.89648341 -125.49195924 195.18131068 -125.48101807 191.46530151 C-125.49266943 190.38164019 -125.5043208 189.29797888 -125.51632524 188.18147933 C-125.46794274 182.12016304 -125.05631306 178.60580253 -121 174 C-118.98029693 172.22933891 -117.0322393 170.63587021 -114.875 169.0625 C-114.29733887 168.62993896 -113.71967773 168.19737793 -113.12451172 167.75170898 C-109.06260634 164.72747155 -104.93279745 161.80349627 -100.7578125 158.9375 C-98.51743667 157.36352491 -96.31339625 155.75919099 -94.1171875 154.125 C-93.43769043 153.62025146 -92.75819336 153.11550293 -92.05810547 152.59545898 C-90.70264609 151.58585881 -89.35002289 150.57243789 -88.00048828 149.55493164 C-83.2203404 146 -83.2203404 146 -81 146 C-81 235.76 -81 325.52 -81 418 C-68.13 418 -55.26 418 -42 418 C-42 309.1 -42 200.2 -42 88 C-55.01019722 97.16240294 -55.01019722 97.16240294 -67.9375 106.4375 C-69.44659561 107.52997412 -70.95571078 108.62242124 -72.46484375 109.71484375 C-73.21362793 110.25737793 -73.96241211 110.79991211 -74.73388672 111.35888672 C-78.486448 114.07648173 -82.24343419 116.78794473 -86 119.5 C-87.50002146 120.58330362 -89.00002146 121.66663696 -90.5 122.75 C-135.5 155.25 -135.5 155.25 -137.74975586 156.87475586 C-139.2506555 157.95878416 -140.75146922 159.04293142 -142.25219727 160.12719727 C-145.98773967 162.82587655 -149.72472254 165.52251312 -153.46484375 168.21484375 C-161.19836163 173.78537618 -168.90120383 179.39296967 -176.5625 185.0625 C-183.1727047 189.95280186 -189.84526782 194.73928306 -196.57958984 199.45678711 C-202.82754218 203.8469451 -208.97035982 208.37314622 -215.10742188 212.91650391 C-220.98109723 217.26133166 -226.90360229 221.53047174 -232.859375 225.76171875 C-235.8375795 227.88424509 -238.79681193 230.03035284 -241.75 232.1875 C-242.62269531 232.81914063 -243.49539063 233.45078125 -244.39453125 234.1015625 C-246.19534982 235.41370317 -247.98373419 236.74301847 -249.76171875 238.0859375 C-250.64472656 238.73820313 -251.52773438 239.39046875 -252.4375 240.0625 C-253.21996094 240.65160156 -254.00242187 241.24070312 -254.80859375 241.84765625 C-257 243 -257 243 -258.92724609 242.72680664 C-261.16121005 241.94347205 -262.53324096 241.0235934 -264.35546875 239.5234375 C-264.97309082 239.02118652 -265.59071289 238.51893555 -266.22705078 238.00146484 C-266.87399902 237.46473145 -267.52094727 236.92799805 -268.1875 236.375 C-269.54264455 235.27043547 -270.89811155 234.16626641 -272.25390625 233.0625 C-272.90375488 232.53011719 -273.55360352 231.99773437 -274.22314453 231.44921875 C-277.76139421 228.56339159 -281.38264777 225.78542284 -285 223 C-285.99386719 222.23171875 -286.98773438 221.4634375 -288.01171875 220.671875 C-293.31414264 216.57779959 -298.63468879 212.51158011 -304 208.5 C-312.02927993 202.49392913 -320.01657489 196.432256 -327.8125 190.125 C-332.13185455 186.64414984 -336.55373262 183.31564216 -341 180 C-353.25211955 170.85818816 -353.25211955 170.85818816 -359 166 C-359.52753372 165.58082809 -360.05506744 165.16165619 -360.59858704 164.7297821 C-362.53850631 162.33531472 -362.36196081 160.76039641 -362.34057617 157.70239258 C-362.34034958 156.62149857 -362.34012299 155.54060455 -362.33988953 154.42695618 C-362.32440567 153.26125595 -362.30892181 152.09555573 -362.29296875 150.89453125 C-362.28872391 149.70018967 -362.28447906 148.50584808 -362.28010559 147.27531433 C-362.26328959 143.45414856 -362.22563093 139.63350684 -362.1875 135.8125 C-362.17245699 133.22461698 -362.15876792 130.63672571 -362.14648438 128.04882812 C-362.11337645 121.69903942 -362.06314762 115.34955714 -362 109 C-357.93158003 110.93287225 -354.50266286 113.52524386 -350.9375 116.25 C-349.49800468 117.3406478 -348.05787379 118.43045713 -346.6171875 119.51953125 C-345.48555176 120.37538818 -345.48555176 120.37538818 -344.33105469 121.24853516 C-340.43242764 124.17781359 -336.49552436 127.05467597 -332.5625 129.9375 C-325.72055443 134.96211861 -318.94558919 140.06527369 -312.21435547 145.23706055 C-305.44516509 150.43661811 -298.61808498 155.55687833 -291.78125 160.66699219 C-289.24595812 162.56429121 -286.71741331 164.47053748 -284.1875 166.375 C-283.25164062 167.07109375 -282.31578125 167.7671875 -281.3515625 168.484375 C-278.61315757 170.52570011 -275.91234578 172.61313792 -273.2109375 174.703125 C-271.49509825 176.01081903 -269.77895167 177.31810992 -268.0625 178.625 C-267.24483154 179.26614746 -266.42716309 179.90729492 -265.5847168 180.56787109 C-264.80523682 181.15648926 -264.02575684 181.74510742 -263.22265625 182.3515625 C-262.52922119 182.88604004 -261.83578613 183.42051758 -261.12133789 183.97119141 C-258.32734554 185.32622464 -256.91266038 184.9332171 -254 184 C-251.42355874 182.38322549 -251.42355874 182.38322549 -248.8125 180.25 C-247.75008752 179.42529009 -246.68618991 178.60249106 -245.62109375 177.78125 C-245.04343262 177.33394531 -244.46577148 176.88664063 -243.87060547 176.42578125 C-240.42271165 173.79778596 -236.89535952 171.27959511 -233.375 168.75 C-232.61251953 168.20069824 -231.85003906 167.65139648 -231.06445312 167.08544922 C-229.49656343 165.95595404 -227.92836409 164.82688857 -226.35986328 163.69824219 C-222.50862893 160.92675593 -218.6600797 158.15155703 -214.8125 155.375 C-214.06129883 154.83319092 -213.31009766 154.29138184 -212.53613281 153.7331543 C-208.48369603 150.80673744 -204.4465953 147.86120086 -200.42553711 144.8918457 C-194.10153748 140.22280462 -187.70323552 135.67635751 -181.25 131.1875 C-173.7199169 125.94883778 -166.30331738 120.57798032 -158.93676758 115.11230469 C-153.13270054 110.81335297 -147.26209699 106.62080004 -141.34960938 102.47265625 C-135.36690479 98.27191503 -129.43736736 94.00054209 -123.51708984 89.71240234 C-119.04658387 86.4751394 -114.56208474 83.25917468 -110.0625 80.0625 C-104.58127273 76.16287266 -99.16028592 72.18484273 -93.75 68.1875 C-81.09334326 58.8379829 -68.34245392 49.63129706 -55.46435547 40.58935547 C-49.27467533 36.22730868 -43.18749019 31.73246216 -37.10375977 27.22436523 C-31.08991399 22.77784993 -25.01073366 18.43367072 -18.88452148 14.14355469 C-13.85894036 10.62234752 -8.91066511 7.01381257 -4.00390625 3.328125 C-2 2 -2 2 0 2 C0 1.34 0 0.68 0 0 Z " fill="#6C3BD2" transform="translate(770,372)"/>
</svg>
